PathFileType	4	(X/Y/Z)	Kaydara	
DataRate	CameraRate	NumFrames	NumMarkers	Units	OrigDataRate	OrigDataStartFrame	OrigNumFrames	
120.00	120.00	4	72	mm	120.00	168	268	
Frame#	Time	Hips			RightUpLeg			RightLeg			RightFoot			RightFoot_End			LeftUpLeg			LeftLeg			LeftFoot			LeftFoot_End			Spine			Spine1			Spine2			Spine3			Neck			Head			Head_End			RightShoulder			RightArm			RightForeArm			RightHand			RightHandThumb1			RightHandThumb2			RightHandThumb3			RightHandThumb3_End			RightInHandIndex			RightHandIndex1			RightHandIndex2			RightHandIndex3			RightHandIndex3_End			RightInHandMiddle			RightHandMiddle1			RightHandMiddle2			RightHandMiddle3			RightHandMiddle3_End			RightInHandRing			RightHandRing1			RightHandRing2			RightHandRing3			RightHandRing3_End			RightInHandPinky			RightHandPinky1			RightHandPinky2			RightHandPinky3			RightHandPinky3_End			LeftShoulder			LeftArm			LeftForeArm			LeftHand			LeftHandThumb1			LeftHandThumb2			LeftHandThumb3			LeftHandThumb3_End			LeftInHandIndex			LeftHandIndex1			LeftHandIndex2			LeftHandIndex3			LeftHandIndex3_End			LeftInHandMiddle			LeftHandMiddle1			LeftHandMiddle2			LeftHandMiddle3			LeftHandMiddle3_End			LeftInHandRing			LeftHandRing1			LeftHandRing2			LeftHandRing3			LeftHandRing3_End			LeftInHandPinky			LeftHandPinky1			LeftHandPinky2			LeftHandPinky3			LeftHandPinky3_End			
		X1	Y1	Z1	X2	Y2	Z2	X3	Y3	Z3	X4	Y4	Z4	X5	Y5	Z5	X6	Y6	Z6	X7	Y7	Z7	X8	Y8	Z8	X9	Y9	Z9	X10	Y10	Z10	X11	Y11	Z11	X12	Y12	Z12	X13	Y13	Z13	X14	Y14	Z14	X15	Y15	Z15	X16	Y16	Z16	X17	Y17	Z17	X18	Y18	Z18	X19	Y19	Z19	X20	Y20	Z20	X21	Y21	Z21	X22	Y22	Z22	X23	Y23	Z23	X24	Y24	Z24	X25	Y25	Z25	X26	Y26	Z26	X27	Y27	Z27	X28	Y28	Z28	X29	Y29	Z29	X30	Y30	Z30	X31	Y31	Z31	X32	Y32	Z32	X33	Y33	Z33	X34	Y34	Z34	X35	Y35	Z35	X36	Y36	Z36	X37	Y37	Z37	X38	Y38	Z38	X39	Y39	Z39	X40	Y40	Z40	X41	Y41	Z41	X42	Y42	Z42	X43	Y43	Z43	X44	Y44	Z44	X45	Y45	Z45	X46	Y46	Z46	X47	Y47	Z47	X48	Y48	Z48	X49	Y49	Z49	X50	Y50	Z50	X51	Y51	Z51	X52	Y52	Z52	X53	Y53	Z53	X54	Y54	Z54	X55	Y55	Z55	X56	Y56	Z56	X57	Y57	Z57	X58	Y58	Z58	X59	Y59	Z59	X60	Y60	Z60	X61	Y61	Z61	X62	Y62	Z62	X63	Y63	Z63	X64	Y64	Z64	X65	Y65	Z65	X66	Y66	Z66	X67	Y67	Z67	X68	Y68	Z68	X69	Y69	Z69	X70	Y70	Z70	X71	Y71	Z71	X72	Y72	Z72	

168	1.392	5446.805	859.65103	-201.189	5489.797238740331	849.2352532652803	-223.79742647193274	5407.0635819015715	449.7076318949123	-266.7081588415673	5462.505088064996	77.95414875660062	-385.44684295033176	5442.47144510954	-22.443954537173973	-259.26817792685034	5410.751353520923	841.5112177615307	-164.87238535576046	5280.55963633536	454.64348036433245	-74.2282998246587	5208.514900866309	84.3956828901142	105.35992463547186	5263.342846047358	36.12724047597442	277.8514751326452	5413.833406394071	985.032141474081	-259.75516653511033	5368.293551018137	1059.8867685738755	-300.2660849477599	5315.372214915054	1134.06363050671	-341.87444788506576	5257.289926839463	1199.1428364325257	-381.1332557100791	5195.043170373891	1269.315079161424	-418.7235505300385	5159.369400282763	1348.1036635887742	-379.58350640898743	5142.49296171543	1442.9100818310314	-255.81462359876068	5223.945672195466	1253.6017596080083	-412.834807904442	5264.851900456337	1276.9992530077154	-431.4070421716099	5415.147772301615	1155.3005082161142	-405.4251626599232	5519.1592673507275	1215.9661097205308	-462.9575271156711	5528.205629403139	1256.5036684667532	-453.98448853943944	5539.833296013637	1281.8153393271295	-459.57753083277595	5549.2033537459765	1295.4782734500636	-465.0733420805793	5558.103395929525	1303.4772734556077	-471.0244200874671	5533.955125533487	1246.8902946244252	-457.81755824487044	5559.7381076582005	1275.6470609457074	-460.5869696584649	5575.769533517873	1290.9709206547373	-468.294649778635	5581.650044604049	1298.922196328883	-474.7405021318141	5583.761059949304	1304.4407001913617	-481.191401722022	5536.428022866969	1234.8848107532908	-462.349881151443	5562.914106365064	1256.4408618439106	-467.5009707770257	5580.647855319624	1271.4790080584862	-476.5078492236838	5587.85776463384	1280.2641955553077	-484.5706690721995	5590.223639704872	1285.9097635390888	-491.7682251405446	5537.550037384133	1225.6965200363752	-465.43361766136354	5562.356966298865	1237.1191396021256	-472.5874313248876	5578.01725076952	1248.47173698275	-481.03971749821346	5585.079830658384	1256.0138919701617	-489.1365699906287	5587.35554704878	1260.880560832583	-496.0555502257812	5537.837454023582	1214.0574690822473	-469.28315572390613	5560.885978378592	1217.4600578808672	-478.05872582171475	5573.63518297079	1223.7632399111656	-485.73511914401587	5578.887772279435	1227.9160861086455	-492.0802852214104	5580.961879813827	1231.4511235334983	-498.4621921006753	5206.485734754544	1240.1243624701997	-398.7393685852507	5185.49369007756	1190.6509776339715	-386.2611301420333	5294.756940367293	1136.452685668746	-463.12979948850574	5403.764682375778	1197.4172311116663	-410.12084940091677	5419.79582508191	1234.990884477808	-408.00323387685194	5436.718163228834	1247.5176019190435	-414.1290745723447	5447.071139847136	1253.3099666386638	-420.8054550560339	5454.477154564862	1255.6312076824506	-428.43325553209587	5415.821540997179	1230.1317812864172	-416.4314155031343	5430.292087300235	1259.7226795052602	-435.0939770808132	5442.032566255015	1268.5567579764863	-448.1773122080382	5450.291921530085	1267.6863727120462	-452.95233780246156	5457.775942011278	1262.6742321374127	-454.63895481812034	5411.503177337129	1220.5704527464598	-422.3421712736754	5423.281032027127	1244.2641517635025	-443.7421756120277	5435.477581082392	1252.5316258265668	-458.73819368578535	5445.147239748184	1250.8230099488276	-464.8443389442234	5453.192727659343	1245.0186764125176	-466.85764166574717	5408.059546362965	1213.1663803977485	-426.0603745533551	5415.556953943127	1228.2838764083967	-448.5208352388746	5425.5409740676605	1234.0487277724542	-462.2928900364566	5434.524781642055	1231.635306216911	-468.55526277973655	5441.926864789681	1225.8150906165977	-470.62479515898497	5403.856010256743	1202.9395344825434	-429.65943677576774	5408.067137316641	1210.8660369952834	-452.546933219365	5415.020778285945	1213.1673113745155	-464.57136684378395	5421.069946622437	1210.2871056583178	-469.62110445281775	5427.337124056822	1204.4868579978736	-471.7317327136977
169	1.4	5446.805	859.65103	-201.189	5490.16399171439	849.3319538287681	-223.62128383329423	5406.696668115852	450.1320531956466	-267.0535270206676	5462.507552349205	78.13247616035082	-384.52715225549747	5441.393554814457	-22.148443877488177	-258.67534397578794	5410.421971469037	841.4583912597091	-164.97494600356157	5280.201180862011	454.7985094598112	-73.4489876016662	5208.60810901909	84.13194001326069	105.65097284949502	5263.786008935661	35.7905149479929	278.0260921569219	5413.648042848211	984.8340957407302	-260.0877028464587	5368.08729581329	1059.6246424871374	-300.66478858938643	5315.1672893036575	1133.7678874703508	-342.31157489390887	5257.095112423832	1198.8281221513982	-381.57032088920624	5194.9056803239155	1269.0084869965528	-419.1780373545104	5159.019850835115	1347.7697338878882	-380.21891051353856	5142.064902977716	1442.4723491237582	-256.443967618906	5223.966885108831	1253.4677765030206	-413.25987527476366	5265.766618829564	1277.8454137083986	-431.872613864051	5418.030800659664	1155.9193647287186	-407.5351226636596	5525.294570040133	1219.3670472112888	-468.4087233285933	5535.135392025538	1260.7948828907531	-459.3026775865102	5547.41727520906	1286.6126839397357	-465.27267007581685	5557.208968243516	1300.5695820548794	-471.11175990760955	5566.4314571074765	1308.7635969406824	-477.41811100935115	5540.852732323442	1251.088096105829	-463.38738778212377	5567.60247281273	1280.6957053992385	-466.74898939109966	5584.21749466865	1296.4266799873017	-475.00602998230573	5590.36452708127	1304.5111538201645	-481.75701243507666	5592.631184759095	1310.059026258409	-488.4359104288752	5543.195374276178	1238.8850798717083	-468.12530496338115	5570.553974954425	1261.1642248494622	-473.96516586002696	5588.904109010558	1276.6175593808275	-483.5968841506654	5596.425760588474	1285.549502771646	-492.0400103712078	5598.957169399335	1291.2204270041163	-499.4929581253387	5544.201568980088	1229.5371854003147	-471.33843413235195	5569.692470075036	1241.4741660213786	-479.2196585766268	5585.867727486641	1253.157788100946	-488.2414195144913	5593.219180443456	1260.8251146777088	-496.7183107364575	5595.644935496909	1265.7078596902074	-503.883680168197	5544.320589550679	1217.6764147607437	-475.3258391906467	5567.895884635014	1221.4199455113217	-484.8512624966275	5581.019726659879	1227.937807119903	-493.01929097949323	5586.464768151936	1232.1575772903261	-499.65888980867817	5588.661280690697	1235.6928264824592	-506.2689741006432	5206.132912172867	1239.6450321966577	-399.18702004886677	5184.401080951222	1189.3190694303057	-387.0655133849664	5294.5734716525685	1136.1314980225172	-465.8598699562923	5405.977476279805	1199.7455399890018	-413.4733512209599	5422.421569937531	1238.2012940067696	-411.92730064786065	5439.681777746049	1251.233120395254	-418.2627525026659	5450.187253730144	1257.3380177698245	-425.05324748706175	5457.649573428409	1259.8862472745896	-432.74892605887123	5418.173886089773	1233.3231839530154	-420.3298225493889	5432.613410507374	1263.9114844126354	-439.55214212402825	5444.409735656785	1273.2223926970853	-452.8321575158965	5452.816163903671	1272.4837536349503	-457.6061163471911	5460.4977025143235	1267.4695648614784	-459.2086521099486	5413.635099018521	1223.6101262569946	-426.1252783751968	5425.2634466309655	1248.19465307013	-448.008942875146	5437.492047935617	1256.9589165400648	-463.20230812129705	5447.32528313226	1255.3979571060056	-469.2988786627304	5455.58015286509	1249.5858937100975	-471.2161519178406	5410.03519686473	1216.0755533531585	-429.7495994106627	5417.259059622775	1231.8844099703003	-452.5674654671288	5427.241741590618	1238.0567901436257	-466.4930940088262	5436.367785056469	1235.772266128106	-472.73644109662473	5443.959372951834	1229.9383712228457	-474.711042315337	5405.6629545518945	1205.6524802523033	-433.2095771512102	5409.51469612178	1214.0996514446554	-456.34556529764524	5416.4227957565	1216.6844858181623	-468.4626426163678	5422.554200021759	1213.8776073080678	-473.4838298352592	5428.976867735791	1208.0533339302087	-475.50192008877764
170	1.408	5446.805	859.65103	-201.189	5490.5635589038	849.4048734959981	-223.5064111911368	5406.298875800117	450.5356605892596	-267.40678037460543	5462.609482360357	78.2744748175306	-383.6028391953877	5440.348148004135	-21.861292266451937	-258.0175945582626	5410.063313331235	841.4299732014445	-165.0164971997087	5279.854747747387	454.9607588601729	-72.63046079592985	5208.727768937318	83.82265016959406	105.85335178306933	5264.283074035767	35.379718053861076	278.09979346386626	5413.445139692868	984.6347080346176	-260.4153859751315	5367.858547990181	1059.353289006088	-301.0677276625766	5314.935796223397	1133.4539105498377	-342.76444207268906	5256.870275575797	1198.483883865566	-382.0377041149103	5194.731872260877	1268.6568486530068	-419.6816754092812	5158.588665661927	1347.362681529827	-380.9170888049404	5141.525957617944	1441.9383980283235	-257.1232592001608	5223.966345078493	1253.2771345540825	-413.7600421125836	5266.704197014336	1278.5327958394496	-432.55215374180017	5420.666922968581	1156.1577163920292	-409.91332843011094	5531.0646244957225	1222.046203788214	-474.32382982365027	5541.73766653839	1264.28704430101	-465.1632035594021	5554.648932148815	1290.5569342122071	-471.57685232039546	5564.837308566069	1304.7736394043766	-477.7991475671172	5574.35489203528	1313.1371689478076	-484.48847309777716	5547.403221812543	1254.4896765688504	-469.48364110990207	5575.100159845387	1284.858280178695	-473.507506283696	5592.261896495811	1300.9474340094444	-482.361122908315	5598.647504437151	1309.1462816497587	-489.44561892052593	5601.043289747375	1314.7157655698975	-496.37535373444604	5549.594356266414	1242.1023593753332	-474.4068868128995	5577.794906426658	1265.0241155539056	-480.9929051302025	5596.718411085452	1280.8412941759757	-491.2980815751097	5604.516760195246	1289.8982683738222	-500.15436458666846	5607.184044702076	1295.5865404438523	-507.8870160936091	5550.47039800915	1232.6063687935243	-477.73328971838197	5576.605967748591	1244.9951818374361	-486.3793239712295	5593.255921653069	1256.967304775826	-496.00987786042896	5600.860965324206	1264.7400306052746	-504.89687084029185	5603.408172179366	1269.631882553663	-512.3307194391335	5550.403633229641	1220.5407934989762	-481.83805616487166	5574.45953509806	1224.577867605516	-492.1349722108059	5587.921588040344	1231.280106851214	-500.8211870331278	5593.531327215662	1235.5541927360505	-507.77476025789184	5595.8237592556425	1239.0845239711246	-514.6312166652532	5205.736417788505	1239.145825444549	-399.64469023117033	5183.207041193292	1187.994325467794	-387.7162134801615	5294.121797529862	1135.578194890086	-468.5800285938505	5408.003736490378	1201.4722876356727	-416.99617824905465	5424.787852407744	1240.7572427826822	-416.0922763034078	5442.364255150346	1254.263816489236	-422.6980245076743	5453.012599141132	1260.6598470734148	-429.63716032028674	5460.5278679455105	1263.417006620782	-437.422883099702	5420.275036314498	1235.8509874051897	-424.44741308827133	5434.625009806826	1267.3555206706035	-444.2775241661111	5446.461152586941	1277.1047673507728	-457.7901778946981	5455.018339357664	1276.490328280951	-462.5893881237605	5462.909654336303	1271.478896754276	-464.1322993526755	5415.533895361046	1225.9891858647027	-430.10497985617843	5426.965415195777	1251.3869798701871	-452.50693577724235	5439.211183322934	1260.6067106107075	-467.9337523772158	5449.213691612861	1259.1846296010435	-474.05099656044894	5457.691963619193	1253.3702529613358	-475.8982695129059	5411.7917549472995	1218.3280923008558	-433.61816699033085	5418.711182245158	1234.7616678401928	-456.8093040753772	5428.682291462032	1241.3063794411332	-470.91671858876276	5437.957520523494	1239.1427209109188	-477.1684876734028	5445.752485392785	1233.3004458740297	-479.07181224533906	5407.270462094484	1207.717310394493	-436.9183107151968	5410.745823337821	1216.628579344384	-460.3043420921228	5417.604596619132	1219.4703590054678	-472.5315054961096	5423.8254394287715	1216.7317085733355	-477.5416720692889	5430.417113820261	1210.888540786519	-479.48674493137605
171	1.417	5446.805	859.65103	-201.189	5490.991866030681	849.4521839304256	-223.45546461316255	5405.873357258749	450.91340190245387	-267.7626916846429	5462.818066908101	78.37924615237871	-382.6811403727112	5439.35154094135	-21.58438418713701	-257.299047412895	5409.679223859368	841.4274553894159	-164.9949658290661	5279.52549068023	455.12994354986745	-71.77660389564737	5208.875055812305	83.470059804715	105.96410081207979	5264.834485993681	34.896586016408776	278.06945280696743	5413.225943986032	984.4355638916381	-260.7355027589798	5367.608985348397	1059.0750593069915	-301.4715236703526	5314.679847286307	1133.1247965472246	-343.22920178728697	5256.617960056158	1198.1139825552846	-382.5313978031762	5194.524306291992	1268.2644529071154	-420.2302328871442	5158.079284403306	1346.8865680752656	-381.67329227718216	5140.879297376067	1441.3132735218812	-257.848218002608	5223.945093284583	1253.0320597108073	-414.3315418271582	5267.658291130667	1279.0540890691473	-433.4421592854728	5423.031414888467	1156.009951877946	-412.5422011812153	5536.418535234758	1223.9797917957026	-480.6638835231894	5547.956686477362	1266.9493885866605	-471.52919518521514	5561.4674129774685	1293.6140892886644	-478.4516192589149	5572.02408989988	1308.0547337015664	-485.0952707215904	5581.806651382604	1316.5613159797963	-492.19321755076857	5553.550755137062	1257.065263055365	-476.06740857531395	5582.168305262239	1288.099247132392	-480.8204488181323	5599.835129253151	1304.4953191554343	-490.31472513593826	5606.4289481690985	1312.78920124877	-497.75945152276904	5608.925703251698	1318.3727410769948	-504.9616712688678	5555.569685578133	1244.508634364432	-481.15395830570515	5584.5750663961135	1267.9878463150974	-488.53948516660864	5604.023844326268	1284.1152400931376	-499.56309757807134	5612.06097429677	1293.2750199811737	-508.8632700586408	5614.832701000258	1298.972910947482	-516.8985829630275	5556.301810893357	1234.877429782006	-484.57635860398835	5583.037362974269	1247.6525089674765	-494.01999378401416	5600.117415458976	1259.8688834559155	-504.295264151584	5607.938055030787	1267.726895089036	-513.6202615133657	5610.576484819325	1272.621214447669	-521.3433499870911	5556.032748205881	1222.625832009218	-488.7767034302986	5580.518687017655	1226.9073645884293	-499.8617517804282	5594.2792570450465	1233.7627260174363	-509.08966016318345	5600.024054356613	1238.0784776740763	-516.3750160970262	5602.384519616438	1241.5991724813593	-523.4947711555654	5205.30052958206	1238.6327946803935	-400.1080612585782	5181.921100189903	1186.6914422148684	-388.20476934103914	5293.40018403061	1134.7983689188316	-471.2660731038858	5409.821996227833	1202.5808885263052	-420.6617618749657	5426.869451649035	1242.6349173633348	-420.4679550692182	5444.737960670862	1256.5816141905852	-427.4043125991727	5455.518542562412	1263.244767022375	-434.5264239999356	5463.083155686118	1266.1909264376202	-442.42425526115375	5422.101911412862	1237.6916867332316	-428.7537257894312	5436.303700435131	1270.0233657479905	-449.23660096688513	5448.163350661455	1280.168593874212	-463.01708885433106	5456.874144066259	1279.669631596242	-467.86832798002314	5464.9863537190995	1274.6656156860063	-469.37708107754656	5417.178335592747	1227.6854512094023	-434.25116991081404	5428.366605468175	1253.8119451753983	-457.2032549098503	5440.6145918012235	1263.441805491992	-472.89885382620037	5450.791176543928	1262.1485020749371	-479.0676022820374	5459.505680931651	1256.3371151217148	-480.8720225324945	5413.309305729385	1219.9029387814928	-437.63628672016773	5419.895373664258	1236.8892394777727	-461.2142893862966	5429.844868479434	1243.7678033519778	-475.53109255944076	5439.2755029888585	1241.7158181745417	-481.81932714242316	5447.286660247189	1235.8704102019963	-483.67609740203244	5408.660085984234	1209.1146144455831	-440.75640962413905	5411.744802927349	1218.4294612770457	-464.3922514808891	5418.550997653067	1221.499307473025	-476.74656574396704	5424.86813226965	1218.8231158439455	-481.76372947433146	5431.6414988946435	1212.9662402142799	-483.6562822331798
